<svg width="1610" height="1416" viewBox="0 0 1610 1416" fill="none" xmlns="http://www.w3.org/2000/svg">
<g clip-path="url(#clip0_11_2)">
<rect x="105" y="153" width="120" height="1129" rx="60" fill="#FF00B7"/>
<circle cx="507" cy="943" r="279" stroke="#FF00B7" stroke-width="120"/>
<path d="M301.5 1131.5C301.5 1131.5 865.5 1677.5 1015.5 473.5" stroke="#FF00B7" stroke-width="120"/>
<path opacity="0.5" d="M1533.73 334.321C1536.12 343.23 1531.92 358.607 1510.68 377.401C1490.45 395.296 1458.92 412.056 1420.75 422.285C1382.57 432.514 1346.88 433.764 1320.42 428.381C1292.62 422.728 1281.3 411.506 1278.92 402.597C1276.53 393.689 1280.72 378.311 1301.97 359.518C1322.2 341.622 1353.72 324.862 1391.9 314.633C1430.08 304.404 1465.76 303.154 1492.23 308.537C1520.02 314.191 1531.34 325.412 1533.73 334.321Z" stroke="#FF00B7" stroke-width="40"/>
<path opacity="0.25" d="M1579.02 414.183C1582.95 428.853 1575.47 450.701 1547.66 475.299C1520.87 498.998 1479.51 520.897 1429.77 534.222C1380.04 547.548 1333.27 549.266 1298.22 542.137C1261.84 534.737 1244.44 519.556 1240.51 504.886C1236.58 490.216 1244.06 468.368 1271.86 443.77C1298.65 420.07 1340.02 398.172 1389.75 384.846C1439.48 371.521 1486.25 369.803 1521.3 376.932C1557.68 384.331 1575.09 399.513 1579.02 414.183Z" stroke="#FF00B7" stroke-width="40"/>
<path opacity="0.75" d="M1484.06 257.108C1485.17 261.263 1483.69 271.302 1467.86 285.306C1453.05 298.412 1429.63 310.932 1400.99 318.607C1372.35 326.281 1345.81 327.145 1326.43 323.202C1305.72 318.989 1299.42 311.036 1298.31 306.88C1297.19 302.725 1298.67 292.686 1314.5 278.682C1329.32 265.576 1352.73 253.056 1381.37 245.381C1410.01 237.707 1436.55 236.843 1455.93 240.786C1476.64 244.998 1482.95 252.952 1484.06 257.108Z" stroke="#FF00B7" stroke-width="40"/>
<path d="M1413.1 344C1453.1 1157.5 1446.1 1292.5 1217.1 1282C988.105 1271.5 988.105 969.5 1028.1 153" stroke="#FF00B7" stroke-width="120" stroke-linecap="round"/>
<rect x="1329" y="117.199" width="120" height="98" rx="49" transform="rotate(-2.96097 1329 117.199)" fill="#FF00B7"/>
</g>
<defs>
<clipPath id="clip0_11_2">
<rect width="1610" height="1416" fill="white"/>
</clipPath>
</defs>
</svg>
